<svg width="30" height="30" viewBox="0 0 30 30" fill="none" xmlns="http://www.w3.org/2000/svg">
<path fill-rule="evenodd" clip-rule="evenodd" d="M13.7669 0.0187784C11.7927 0.246259 10.4716 0.585221 8.90474 1.26614C7.31483 1.95714 5.66639 3.09126 4.37207 4.38462C2.4527 6.30257 1.06984 8.73597 0.420831 11.3375C0.0754524 12.7219 0 13.3794 0 15.0047C0 16.63 0.0754524 17.2874 0.420831 18.6718C1.43025 22.7182 4.15364 26.2154 7.87277 28.2413C9.30877 29.0234 11.1132 29.6188 12.8568 29.8857C13.8525 30.0381 16.1475 30.0381 17.1432 29.8857C19.3626 29.5459 21.4468 28.7521 23.2214 27.5705C24.2419 26.891 24.8325 26.4118 25.624 25.6208C27.5827 23.6636 28.918 21.3146 29.5823 18.6576C29.9242 17.2901 30 16.6271 30 15.0047C30 13.3794 29.9245 12.7219 29.5792 11.3375C28.5168 7.079 25.569 3.44624 21.6058 1.51128C20.2146 0.832122 18.7078 0.361965 17.1726 0.12803C16.587 0.0387863 14.2449 -0.0363168 13.7669 0.0187784ZM16.2553 5.35316C19.3447 5.89149 21.7784 8.31656 22.3201 11.3962C22.4403 12.0799 22.4413 13.0973 22.3222 13.6258C21.7654 16.0981 19.1489 20.1258 15.3083 24.4231L15 24.768L14.6917 24.4231C11.3522 20.6865 8.78213 16.9266 7.95797 14.5717C7.60449 13.5616 7.51541 12.9252 7.60085 12.0199C7.71294 10.8318 8.09478 9.70122 8.72594 8.6885C9.11812 8.05928 10.0194 7.10382 10.6455 6.65373C11.5142 6.02914 12.6476 5.54936 13.7082 5.3572C14.318 5.24672 15.6327 5.24467 16.2553 5.35316ZM14.2415 9.81716C13.0456 10.1385 12.1815 11.2807 12.1815 12.5404C12.1815 15.0411 15.2241 16.3007 16.9936 14.5325C18.307 13.22 18.0092 11.0075 16.3948 10.0846C15.7867 9.73689 14.9343 9.63104 14.2415 9.81716Z" fill="white"/>
</svg>
