<svg width="50" height="25" viewBox="0 0 50 25" fill="none" xmlns="http://www.w3.org/2000/svg">
<path fill-rule="evenodd" clip-rule="evenodd" d="M37.0115 0.099214C36.4314 0.3409 36.1574 1.0752 36.4398 1.63093C36.4993 1.74774 38.6885 3.97699 41.3049 6.58467L46.062 11.326H23.5413C-0.666394 11.326 0.653191 11.2987 0.195596 11.8091C0.0567227 11.9639 0 12.1648 0 12.5015C0 12.9073 0.0460627 13.0214 0.319701 13.2936L0.639402 13.6116L23.327 13.6602L46.0146 13.7088L41.4568 18.2313C38.9499 20.7187 36.7714 22.9245 36.6154 23.1331C35.8946 24.0975 36.7626 25.3625 37.8294 24.9026C38.2255 24.7317 49.847 13.1635 49.9601 12.8274C50.0059 12.6913 50.0134 12.4211 49.9768 12.227C49.8964 11.801 49.3555 11.2436 42.6398 4.66684C39.1089 1.20903 37.8728 0.0554474 37.6521 0.0121676C37.4829 -0.0210947 37.2119 0.0157665 37.0115 0.099214Z" fill="white"/>
</svg>
