<svg width="20" height="14" viewBox="0 0 20 14" fill="none" xmlns="http://www.w3.org/2000/svg">
<path fill-rule="evenodd" clip-rule="evenodd" d="M4.23828 0.03905C3.89184 0.0998406 3.41801 0.34169 3.14379 0.597653C2.85867 0.863863 2.60996 1.30001 2.54176 1.65348C2.51672 1.78327 2.5 2.4508 2.5 3.32185V4.77383H4.08203H5.66406V4.43505C5.66406 4.24874 5.69074 3.99846 5.72336 3.87893C5.91934 3.16049 6.51402 2.60531 7.28359 2.42236C7.47969 2.37575 7.90625 2.367 9.98676 2.367C11.6184 2.367 12.5274 2.38049 12.6641 2.40679C13.0257 2.47629 13.4306 2.68693 13.7109 2.95142C14.1393 3.35555 14.3359 3.8224 14.3359 4.43505V4.77383H15.918H17.5V3.32185C17.5 2.4508 17.4833 1.78327 17.4582 1.65348C17.3482 1.08296 16.8974 0.514471 16.3382 0.240786C15.8166 -0.0144473 16.1346 -0.00248616 9.98047 0.00134288C6.70152 0.00338504 4.35375 0.0188108 4.23828 0.03905ZM7.59109 3.45886C7.40922 3.50029 7.12551 3.66545 7.03906 3.78024C6.87547 3.99741 6.83008 4.12872 6.80785 4.4488L6.78531 4.77383H10H13.2147L13.1916 4.46758C13.1549 3.98264 13.0099 3.73674 12.6512 3.55123L12.4414 3.44278L10.0781 3.43672C8.77832 3.43341 7.65914 3.44336 7.59109 3.45886ZM1.62633 5.92568C1.50031 5.95416 1.28938 6.03026 1.15758 6.09477C0.847969 6.24633 0.40582 6.65874 0.243945 6.94701C0.0346094 7.3197 0.00121094 7.53318 0.000585937 8.50259L0 9.36868H10H20V8.51349C20 8.03471 19.9811 7.57326 19.9571 7.46506C19.7962 6.73904 19.1228 6.09284 18.35 5.92276C17.9897 5.84344 1.97789 5.84625 1.62633 5.92568ZM0 12.0167C0 13.5468 0.00132812 13.5729 0.0853125 13.7124C0.175195 13.8617 0.415937 14 0.585938 14C0.755938 14 0.99668 13.8617 1.08656 13.7124C1.15863 13.5927 1.17188 13.5135 1.17188 13.2019V12.8331H10H18.8281V13.2019C18.8281 13.5135 18.8414 13.5927 18.9134 13.7124C19.0033 13.8617 19.2441 14 19.4141 14C19.5841 14 19.8248 13.8617 19.9147 13.7124C19.9987 13.5729 20 13.5468 20 12.0167V10.4627H10H0V12.0167Z" fill="#0D6B0D"/>
</svg>
