<svg width="20" height="20" viewBox="0 0 20 20" fill="none" xmlns="http://www.w3.org/2000/svg">
<path fill-rule="evenodd" clip-rule="evenodd" d="M1.1827 0.0791935C0.631841 0.261338 0.228945 0.752294 0.0632172 1.44327C0.0131806 1.65205 0 1.99063 0 3.06917V4.43138H9.95773H19.9155V3.1027C19.9155 1.87675 19.9089 1.7531 19.8301 1.5026C19.6395 0.896744 19.1457 0.392959 18.4867 0.131886C18.2612 0.042561 18.1507 0.0336241 17.0768 0.0174757L15.9115 0L15.8992 1.15038L15.8869 2.30081L15.7836 2.41907C15.499 2.745 15.1179 2.745 14.8333 2.41907L14.73 2.30081L14.7177 1.15397L14.7054 0.00716726H9.70982H4.71422L4.70191 1.15397L4.68964 2.30081L4.58634 2.41907C4.30174 2.745 3.92066 2.745 3.63602 2.41912L3.53272 2.30081L3.51206 1.16507L3.4914 0.0292883L2.43778 0.0209266C1.5991 0.0142903 1.34305 0.0261472 1.1827 0.0791935ZM0 12.035C0 16.089 0.0147507 18.3503 0.0421861 18.5052C0.148002 19.1027 0.493589 19.5936 0.983336 19.8421L1.26021 19.9825L9.65995 19.9941C18.9858 20.007 18.3257 20.0273 18.8895 19.7101C19.3039 19.4769 19.6328 19.1185 19.8223 18.6935L19.9774 18.3455L19.9887 12.0742L20 5.80289H10H0V12.035ZM5.82544 8.34655C6.06637 8.47998 6.0738 8.51746 6.0738 9.59763C6.0738 11.0405 6.13107 10.9792 4.78351 10.9792C3.49913 10.9792 3.55338 11.0378 3.55338 9.64979C3.55338 8.24298 3.51619 8.28297 4.82599 8.28147C5.52733 8.28067 5.73028 8.29386 5.82544 8.34655ZM10.7423 8.34655C10.985 8.48096 10.9907 8.511 10.9907 9.66519V10.7206L10.8699 10.8499L10.7491 10.9792H9.76349C8.40594 10.9792 8.47027 11.0453 8.47027 9.64979C8.47027 8.59975 8.50006 8.45304 8.73558 8.34323C8.92861 8.25324 10.5787 8.25599 10.7423 8.34655ZM15.7226 8.35022C15.9648 8.47335 15.9902 8.59669 15.9902 9.65196C15.9902 10.6749 15.9622 10.8297 15.759 10.9288C15.5947 11.009 13.8288 10.9972 13.6801 10.9149C13.4751 10.8014 13.4491 10.6546 13.4491 9.60772C13.4491 8.56714 13.4588 8.51728 13.6894 8.36672C13.8088 8.28872 13.9026 8.28076 14.7031 8.28063C15.4211 8.28049 15.6107 8.29346 15.7226 8.35022ZM5.86122 14.3604C6.05558 14.4681 6.07384 14.5762 6.07318 15.6157C6.07252 16.6709 6.0617 16.7277 5.82953 16.8953C5.69504 16.9923 5.65674 16.9962 4.82405 16.9962C3.51962 16.9962 3.55338 17.0326 3.55338 15.6268C3.55338 14.2362 3.49583 14.2974 4.80417 14.2974C5.53968 14.2974 5.77243 14.3113 5.86122 14.3604ZM10.7547 14.3454C10.9711 14.451 10.9907 14.5585 10.9907 15.6404C10.9907 16.2922 10.9744 16.6764 10.9436 16.7486C10.8511 16.9661 10.7065 16.9962 9.75114 16.9962C8.4349 16.9962 8.47027 17.034 8.47027 15.6268C8.47027 14.2367 8.41337 14.2974 9.71705 14.2974C10.3044 14.2974 10.6931 14.3154 10.7547 14.3454ZM15.7747 14.3664C15.9708 14.5135 15.9902 14.6268 15.9902 15.6239C15.9902 17.0458 16.0361 16.9962 14.7217 16.996C13.9027 16.9958 13.8091 16.988 13.6894 16.9099C13.4588 16.7593 13.4491 16.7095 13.4491 15.6689C13.4491 14.6312 13.4752 14.4781 13.6718 14.3637C13.8378 14.2671 15.6453 14.2694 15.7747 14.3664Z" fill="#0D6B0D"/>
</svg>
