<svg width="30" height="30" viewBox="0 0 30 30" fill="none" xmlns="http://www.w3.org/2000/svg">
<path fill-rule="evenodd" clip-rule="evenodd" d="M13.7708 0.0187784C11.797 0.246259 10.4762 0.585221 8.90972 1.26614C7.12693 2.04117 5.20643 3.4223 3.92076 4.85401C1.84416 7.16654 0.584847 9.8161 0.114158 12.8631C-0.0385309 13.8517 -0.0379439 16.1438 0.115273 17.1463C0.453878 19.3613 1.24896 21.4463 2.43138 23.22C3.11123 24.2397 3.59067 24.8299 4.38205 25.6208C6.69194 27.9295 9.58311 29.3838 12.8608 29.8857C13.8563 30.0381 16.1508 30.0381 17.1462 29.8857C20.4094 29.386 23.3053 27.9313 25.6183 25.63C27.5448 23.7131 28.9279 21.2834 29.5793 18.6718C29.9246 17.2874 30 16.63 30 15.0047C30 13.3555 29.9233 12.7035 29.5618 11.2789C28.3468 6.49015 24.8194 2.59599 20.1401 0.877829C19.3786 0.598188 18.0412 0.25993 17.1756 0.12803C16.5902 0.0387863 14.2487 -0.0363168 13.7708 0.0187784ZM19.787 13.0099L15.7356 17.0583H15.0035H14.2715L10.22 13.0099L6.16859 8.96145H15.0035H23.8385L19.787 13.0099ZM8.2672 18.0117L5.4935 20.7839V15.2394V9.69482L8.2672 12.4671L11.0408 15.2394L8.2672 18.0117ZM24.5136 15.254V20.7839L21.74 18.0117L18.9664 15.2395L21.7251 12.4817C23.2423 10.965 24.4905 9.72398 24.4987 9.72398C24.5069 9.72398 24.5136 12.2125 24.5136 15.254ZM12.8331 17.0289L13.8662 18.0557H15.0035H16.1409L17.1876 17.0154L18.2343 15.975L20.7721 18.5116L23.31 21.0481H15.0037H6.69746L9.2212 18.5251C10.6093 17.1375 11.7573 16.0021 11.7725 16.0021C11.7876 16.0021 12.2649 16.4642 12.8331 17.0289Z" fill="white"/>
</svg>
