<svg width="30" height="30" viewBox="0 0 30 30" fill="none" xmlns="http://www.w3.org/2000/svg">
<path fill-rule="evenodd" clip-rule="evenodd" d="M13.5597 0.0365946C9.96448 0.429176 6.8761 1.8921 4.38881 4.38074C2.08571 6.68502 0.637964 9.5589 0.13578 12.8232C-0.0585632 14.0866 -0.0425584 16.0695 0.172714 17.3983C1.0722 22.9511 5.04682 27.5654 10.4233 29.2988C11.7652 29.7315 13.005 29.9419 14.4977 29.9905C16.7638 30.0642 18.6787 29.7129 20.8369 28.8276C24.2828 27.4141 27.2735 24.4514 28.7636 20.9751C31.2097 15.2684 29.961 8.72213 25.5966 4.37194C23.287 2.07 20.4403 0.635761 17.1652 0.124167C16.4479 0.0121353 14.2687 -0.040772 13.5597 0.0365946ZM11.4607 8.73943C12.4653 9.74179 13.0098 10.3275 13.0352 10.433C13.1121 10.7515 13.0077 10.903 12.0341 11.8847C11.0197 12.9077 10.8374 13.1717 10.8349 13.621C10.8324 14.1064 11.085 14.5339 12.0096 15.6085C13.3424 17.1576 15.3938 18.929 16.0921 19.1338C16.7397 19.3237 17.0133 19.1762 18.1617 18.0176C19.1741 16.9964 19.3332 16.8982 19.6966 17.0707C20.0032 17.2163 22.8496 20.1006 22.861 20.2773C22.89 20.7295 22.8702 20.7599 22.0426 21.5306C21.0541 22.451 20.2675 22.7974 19.1584 22.8004C18.5642 22.8021 18.274 22.7531 17.5756 22.5333C13.5266 21.2587 9.34135 17.3492 7.65166 13.2631C7.17468 12.1097 7.03492 11.3909 7.13751 10.6195C7.27968 9.55052 7.58248 8.98525 8.5417 7.99808C9.27915 7.2392 9.4535 7.124 9.7784 7.18136C9.87338 7.19814 10.4654 7.74645 11.4607 8.73943Z" fill="white"/>
</svg>
